<svg width="35" height="37" viewBox="0 0 35 37" fill="none" xmlns="http://www.w3.org/2000/svg">
<circle cx="17.5" cy="18.25" r="17.5" fill="#388D69"/>
<mask id="mask0_1218_23" style="mask-type:alpha" maskUnits="userSpaceOnUse" x="0" y="1" width="35" height="36">
<path d="M35 18.75C35 28.415 27.165 36.25 17.5 36.25C7.83502 36.25 0 28.415 0 18.75C0 9.08502 7.83502 1.25 17.5 1.25C27.165 1.25 35 9.08502 35 18.75Z" fill="#681919"/>
</mask>
<g mask="url(#mask0_1218_23)">
<path d="M30 35.75C30 42.6536 24.4036 48.25 17.5 48.25C10.5964 48.25 5 42.6536 5 35.75C5 28.8464 10.5964 23.25 17.5 23.25C24.4036 23.25 30 28.8464 30 35.75Z" fill="#E6E6E6"/>
<circle cx="17.5" cy="16.75" r="6.5" fill="#E6E6E6"/>
</g>
</svg>
