<svg version="1.1" xmlns="http://www.w3.org/2000/svg" viewBox="-2887.7106472040696 -1075.2000610351563 7046.174710085539 2913.28017578125"><desc>Created with Snap</desc><defs></defs><g><g transform="matrix(30.2576,0,0,30.2576,-2959.0708,-1146.598)"><g><path d="M74.265,60.41c0.964,2.929,1.401,5.966,1.261,9.015c2.584-0.989,5.013-2.49,7.095-4.572c0.244-0.244,0.41-0.527,0.637-0.78   c0.018-0.341,0.105-0.659,0.105-1.004c0-2.924-0.646-5.691-1.764-8.203C79.522,57.139,77.045,59.022,74.265,60.41z" fill="#157c79" style=""></path><path d="M54.863,81.605c2.509,1.112,5.276,1.759,8.2,1.759c0.349,0,0.664-0.085,1.004-0.103c0.253-0.227,0.541-0.393,0.781-0.637   c2.08-2.085,3.585-4.516,4.572-7.104c-3.049,0.14-6.086-0.292-9.01-1.257C59.022,77.049,57.137,79.528,54.863,81.605z" fill="#157c79" style=""></path><path d="M40.588,74.265c-2.925,0.965-5.965,1.396-9.013,1.257c0.988,2.588,2.49,5.023,4.573,7.104   c0.242,0.244,0.528,0.41,0.779,0.637c0.339,0.018,0.661,0.103,1.003,0.103c2.926,0,5.691-0.646,8.202-1.759   C43.861,79.528,41.976,77.049,40.588,74.265z" fill="#157c79" style=""></path><path d="M26.731,60.41c-2.781-1.388-5.26-3.271-7.337-5.545c-1.112,2.512-1.758,5.279-1.758,8.203c0,0.345,0.085,0.663,0.1,1.004   c0.229,0.253,0.395,0.536,0.639,0.78c2.082,2.082,4.515,3.583,7.098,4.572C25.333,66.376,25.767,63.339,26.731,60.41z" fill="#157c79" style=""></path><path d="M26.731,40.592c-0.964-2.929-1.398-5.966-1.259-9.016c-2.583,0.989-5.014,2.491-7.098,4.572   c-0.244,0.245-0.41,0.528-0.639,0.781c-0.015,0.341-0.1,0.659-0.1,1.004c0,2.924,0.646,5.69,1.76,8.205   C21.471,43.863,23.95,41.979,26.731,40.592z" fill="#157c79" style=""></path><path d="M46.132,19.397c-2.511-1.114-5.275-1.76-8.202-1.76c-0.342,0-0.664,0.084-1.003,0.102   c-0.251,0.228-0.537,0.393-0.779,0.638c-2.083,2.08-3.585,4.515-4.573,7.103c3.048-0.14,6.088,0.293,9.013,1.257   C41.976,23.952,43.861,21.475,46.132,19.397z" fill="#157c79" style=""></path><path d="M60.41,26.736c2.924-0.964,5.961-1.396,9.01-1.257c-0.99-2.588-2.492-5.017-4.572-7.103   c-0.24-0.245-0.528-0.41-0.781-0.638c-0.34-0.018-0.659-0.102-1.004-0.102c-2.924,0-5.691,0.646-8.2,1.76   C57.137,21.475,59.022,23.952,60.41,26.736z" fill="#157c79" style=""></path><path d="M82.621,36.148c-2.082-2.081-4.511-3.583-7.095-4.572c0.14,3.05-0.297,6.087-1.261,9.016   c2.78,1.388,5.257,3.271,7.334,5.547c1.117-2.515,1.764-5.281,1.764-8.205c0-0.345-0.088-0.663-0.105-1.004   C83.031,36.677,82.865,36.394,82.621,36.148z" fill="#157c79" style=""></path><path d="M58.228,63.068c0-0.166-0.048-0.319-0.052-0.484c-1.061-0.21-2.09-0.498-3.099-0.834c-0.462,0.921-0.89,1.851-1.469,2.719   c0.113,0.122,0.19,0.267,0.309,0.384c1.143,1.14,2.404,2.069,3.718,2.881C57.993,66.228,58.228,64.683,58.228,63.068z" fill="#157c79" style=""></path><path d="M43.362,67.733c1.313-0.812,2.574-1.741,3.715-2.881c0.12-0.117,0.199-0.262,0.312-0.384   c-0.581-0.868-1.008-1.798-1.471-2.719c-1.008,0.336-2.038,0.624-3.1,0.834c-0.002,0.165-0.048,0.318-0.048,0.484   C42.771,64.683,43.006,66.228,43.362,67.733z" fill="#157c79" style=""></path><path d="M36.148,53.922c-1.139,1.14-2.068,2.4-2.88,3.717c1.503,0.355,3.051,0.59,4.663,0.59c0.166,0,0.318-0.044,0.484-0.048   c0.209-1.06,0.495-2.094,0.833-3.102c-0.918-0.463-1.848-0.886-2.716-1.471C36.411,53.726,36.269,53.805,36.148,53.922z" fill="#157c79" style=""></path><path d="M38.415,42.821c-0.166-0.006-0.319-0.05-0.484-0.05c-1.612,0-3.159,0.236-4.663,0.591c0.812,1.318,1.739,2.578,2.88,3.717   c0.12,0.118,0.262,0.196,0.384,0.314c0.868-0.583,1.797-1.008,2.716-1.471C38.91,44.916,38.625,43.881,38.415,42.821z" fill="#157c79" style=""></path><path d="M42.771,37.934c0,0.166,0.046,0.318,0.048,0.484c1.062,0.21,2.092,0.498,3.1,0.834c0.462-0.921,0.89-1.851,1.471-2.719   c-0.113-0.123-0.192-0.267-0.312-0.385c-1.141-1.139-2.402-2.066-3.715-2.879C43.006,34.774,42.771,36.319,42.771,37.934z" fill="#157c79" style=""></path><path d="M57.635,33.27c-1.314,0.812-2.575,1.74-3.718,2.879c-0.118,0.118-0.195,0.262-0.309,0.385   c0.579,0.868,1.007,1.798,1.469,2.719c1.008-0.336,2.038-0.624,3.099-0.834c0.004-0.166,0.052-0.318,0.052-0.484   C58.228,36.319,57.993,34.774,57.635,33.27z" fill="#157c79" style=""></path><path d="M63.063,42.771c-0.166,0-0.314,0.044-0.48,0.05c-0.209,1.06-0.498,2.095-0.838,3.102c0.921,0.463,1.851,0.888,2.719,1.471   c0.122-0.118,0.266-0.196,0.384-0.314c1.139-1.139,2.067-2.398,2.883-3.717C66.226,43.008,64.678,42.771,63.063,42.771z" fill="#157c79" style=""></path><path d="M48.074,49.493c-0.035,0.676-0.035,1.339,0,2.012c0.452,0.502,0.921,0.969,1.42,1.423c0.671,0.034,1.335,0.034,2.007,0   c0.5-0.454,0.972-0.926,1.423-1.423c0.035-0.673,0.033-1.336,0-2.008c-0.451-0.502-0.921-0.969-1.42-1.423   c-0.673-0.035-1.34-0.035-2.012,0C48.995,48.528,48.524,48.995,48.074,49.493z" fill="#157c79" style=""></path><path d="M64.464,53.608c-0.868,0.585-1.798,1.008-2.719,1.471c0.34,1.008,0.628,2.042,0.838,3.102   c0.166,0.004,0.314,0.048,0.48,0.048c1.615,0,3.163-0.234,4.668-0.59c-0.816-1.316-1.745-2.577-2.883-3.717   C64.73,53.805,64.586,53.726,64.464,53.608z" fill="#157c79" style=""></path><path d="M72.271,55.926c2.583-1.327,4.827-3.173,6.615-5.425c-1.788-2.252-4.031-4.098-6.615-5.425   c-1.091,1.929-2.357,3.784-3.998,5.425C69.914,52.142,71.179,53.996,72.271,55.926z" fill="#157c79" style=""></path><path d="M62.138,31.245c0.585,2.133,0.925,4.367,0.925,6.688c2.322,0,4.555,0.341,6.689,0.93c0.868-2.745,1.143-5.603,0.82-8.436   C67.74,30.104,64.879,30.375,62.138,31.245z" fill="#157c79" style=""></path><path d="M50.498,22.11c-2.253,1.794-4.099,4.033-5.424,6.616c1.927,1.096,3.782,2.361,5.424,4.002   c1.644-1.641,3.498-2.906,5.426-4.002C54.597,26.144,52.752,23.904,50.498,22.11z" fill="#157c79" style=""></path><path d="M37.931,37.934c0-2.321,0.34-4.556,0.927-6.688c-2.74-0.87-5.601-1.141-8.432-0.817c-0.323,2.833-0.05,5.69,0.817,8.436   C33.377,38.274,35.612,37.934,37.931,37.934z" fill="#157c79" style=""></path><path d="M22.108,50.501c1.794,2.252,4.034,4.098,6.618,5.425c1.091-1.93,2.356-3.784,3.999-5.425   c-1.643-1.641-2.908-3.496-4.001-5.425C26.143,46.403,23.902,48.249,22.108,50.501z" fill="#157c79" style=""></path><path d="M38.858,69.757c-0.587-2.133-0.927-4.367-0.927-6.688c-2.319,0-4.553-0.341-6.688-0.93   c-0.868,2.745-1.14,5.604-0.817,8.436C33.257,70.896,36.118,70.627,38.858,69.757z" fill="#157c79" style=""></path><path d="M50.498,78.891c2.255-1.793,4.1-4.032,5.426-6.616c-1.929-1.095-3.782-2.36-5.426-4c-1.642,1.64-3.497,2.905-5.424,4   C46.401,74.858,48.245,77.098,50.498,78.891z" fill="#157c79" style=""></path><path d="M63.063,63.068c0,2.321-0.34,4.556-0.925,6.688c2.741,0.87,5.602,1.139,8.435,0.817c0.323-2.832,0.048-5.695-0.82-8.436   C67.618,62.728,65.385,63.068,63.063,63.068z" fill="#157c79" style=""></path><path d="M87.425,44.026c-0.571,2.304-1.457,4.476-2.614,6.475c1.157,1.999,2.043,4.177,2.614,6.475   C88.844,52.771,88.844,48.231,87.425,44.026z" fill="#157c79" style=""></path><path d="M81.233,29.05c-1.981-4.041-5.244-7.301-9.286-9.282c1.249,2.063,2.147,4.268,2.745,6.541   C76.966,26.907,79.165,27.802,81.233,29.05z" fill="#157c79" style=""></path><path d="M56.971,13.576c-4.204-1.418-8.742-1.418-12.947,0c2.3,0.571,4.473,1.453,6.473,2.614   C52.5,15.029,54.671,14.147,56.971,13.576z" fill="#157c79" style=""></path><path d="M29.047,19.768c-4.042,1.981-7.301,5.241-9.284,9.282c2.066-1.248,4.268-2.143,6.541-2.741   C26.904,24.035,27.798,21.831,29.047,19.768z" fill="#157c79" style=""></path><path d="M13.571,56.973c0.574-2.3,1.458-4.473,2.616-6.472c-1.159-1.999-2.04-4.171-2.616-6.472   C12.158,48.231,12.158,52.771,13.571,56.973z" fill="#157c79" style=""></path><path d="M19.765,71.952c1.981,4.041,5.24,7.297,9.279,9.282c-1.248-2.068-2.141-4.269-2.741-6.542   C24.031,74.095,21.829,73.2,19.765,71.952z" fill="#157c79" style=""></path><path d="M44.024,87.426c4.205,1.418,8.746,1.418,12.947,0c-2.3-0.572-4.472-1.453-6.474-2.614   C48.498,85.973,46.324,86.854,44.024,87.426z" fill="#157c79" style=""></path><path d="M71.952,81.234c4.037-1.985,7.3-5.241,9.281-9.282c-2.068,1.248-4.267,2.143-6.541,2.74   C74.095,76.966,73.2,79.166,71.952,81.234z" fill="#157c79" style=""></path></g><desc>Created with Snap</desc><defs></defs></g><g><g transform="matrix(1.024,0,0,-1.024,0,0)"><path d="M48 608L326 608Q431 608 481 570Q532 533 532 447Q532 362 463 326Q567 289 567 172Q567 0 345 0L129 0Q117 0 109 6Q101 13 101 23L101 561L48 561Q38 561 31 567Q25 574 25 584Q25 594 31 601Q38 608 48 608ZM361 297L155 297L155 47L345 47Q430 47 471 77Q512 107 512 172Q512 297 361 297ZM326 561L155 561L155 344L349 344Q408 344 443 372Q478 400 478 454Q478 509 441 535Q404 561 326 561ZM1045 47L1092 47Q1102 47 1108 40Q1115 34 1115 24Q1115 14 1108 7Q1102 0 1092 0L1038 0Q976 0 976 68Q916 -10 825 -10Q771 -10 736 17Q702 45 702 98L702 308Q702 327 675 327L636 327Q626 327 619 334Q613 341 613 351Q613 361 619 367Q626 374 636 374L675 374Q756 374 756 309L756 98Q756 68 774 52Q793 36 826 36Q918 36 972 132L972 361Q972 371 980 377Q988 384 999 384Q1010 384 1018 377Q1026 371 1026 361L1026 66Q1026 47 1045 47ZM1341 338Q1284 338 1250 297Q1216 256 1216 186Q1216 116 1249 76Q1283 36 1341 36Q1425 36 1475 131L1475 278Q1449 303 1412 320Q1376 338 1341 338ZM1475 331L1475 703L1409 703Q1399 703 1392 709Q1386 716 1386 726Q1386 736 1392 743Q1399 750 1409 750L1502 750Q1513 750 1521 743Q1529 736 1529 726L1529 66Q1529 47 1549 47L1595 47Q1605 47 1611 40Q1618 34 1618 24Q1618 14 1611 7Q1605 0 1595 0L1542 0Q1477 0 1479 71Q1457 37 1421 13Q1386 -10 1341 -10Q1252 -10 1207 47Q1163 104 1163 188Q1163 272 1209 328Q1256 384 1337 384Q1418 384 1475 331ZM1733 -11Q1695 -33 1695 -77Q1695 -120 1731 -145Q1768 -170 1832 -170Q1896 -170 1947 -148Q1998 -126 1998 -88Q1998 -47 1926 -39Q1901 -37 1767 -19Q1745 -15 1733 -11ZM1946 241Q1946 285 1916 312Q1887 340 1840 340Q1794 340 1764 312Q1735 285 1735 241Q1735 197 1764 169Q1794 142 1840 142Q1887 142 1916 169Q1946 197 1946 241ZM1976 514Q1992 514 1998 497Q2012 462 2012 434Q2012 376 1964 336Q2000 299 2000 237Q2000 175 1953 135Q1907 96 1840 96Q1810 96 1783 104Q1760 97 1742 82Q1725 68 1725 54Q1725 35 1775 26Q1797 23 1934 7Q2052 -8 2052 -88Q2052 -150 1981 -183Q1911 -216 1831 -216Q1752 -216 1696 -182Q1641 -147 1641 -85Q1641 -23 1694 9Q1672 22 1672 54Q1672 98 1741 125Q1682 170 1682 237Q1682 305 1726 345Q1770 386 1832 386Q1895 386 1931 363Q1958 390 1958 432Q1958 453 1951 471Q1939 501 1963 511Q1970 514 1976 514ZM2388 220Q2385 274 2356 306Q2328 338 2274 338Q2221 338 2185 305Q2149 273 2140 220L2388 220ZM2390 96Q2397 108 2406 108Q2415 108 2424 103Q2433 99 2436 89Q2440 80 2435 72Q2384 -10 2273 -10Q2185 -10 2134 46Q2084 103 2084 189Q2084 275 2136 329Q2188 384 2273 384Q2358 384 2399 333Q2441 282 2441 197Q2441 174 2415 174L2138 173Q2142 111 2178 73Q2215 36 2273 36Q2351 36 2390 96ZM2813 64Q2821 69 2831 67Q2842 65 2846 58Q2850 52 2850 47Q2850 32 2839 25Q2779 -10 2710 -10Q2641 -10 2611 18Q2581 47 2581 113L2581 327L2525 327Q2515 327 2508 333Q2502 340 2502 350Q2502 360 2508 367Q2515 374 2525 374L2581 374L2581 517Q2581 527 2589 533Q2597 540 2608 540Q2619 540 2627 533Q2635 527 2635 517L2635 374L2803 374Q2813 374 2819 367Q2826 360 2826 350Q2826 340 2819 333Q2813 327 2803 327L2635 327L2635 113Q2635 71 2652 53Q2670 36 2717 36Q2765 36 2813 64Z" fill="#081c4f" style=""></path></g></g><g transform="matrix(1,0,0,1,0,1296.3841)"><g transform="matrix(1.024,0,0,-1.024,0,0)"><path d="M48 608L326 608Q431 608 481 570Q532 533 532 447Q532 362 463 326Q567 289 567 172Q567 0 345 0L129 0Q117 0 109 6Q101 13 101 23L101 561L48 561Q38 561 31 567Q25 574 25 584Q25 594 31 601Q38 608 48 608ZM361 297L155 297L155 47L345 47Q430 47 471 77Q512 107 512 172Q512 297 361 297ZM326 561L155 561L155 344L349 344Q408 344 443 372Q478 400 478 454Q478 509 441 535Q404 561 326 561ZM765 47L804 47Q814 47 820 40Q827 33 827 23Q827 13 820 6Q814 0 804 0L765 0Q684 0 684 65L684 703L618 703Q608 703 601 709Q595 716 595 726Q595 736 601 743Q608 750 618 750L711 750Q722 750 730 743Q738 736 738 726L738 66Q738 47 765 47ZM1271 47L1318 47Q1328 47 1334 40Q1341 34 1341 24Q1341 14 1334 7Q1328 0 1318 0L1264 0Q1202 0 1202 68Q1142 -10 1051 -10Q997 -10 962 17Q928 45 928 98L928 308Q928 327 901 327L862 327Q852 327 845 334Q839 341 839 351Q839 361 845 367Q852 374 862 374L901 374Q982 374 982 309L982 98Q982 68 1000 52Q1019 36 1052 36Q1144 36 1198 132L1198 361Q1198 371 1206 377Q1214 384 1225 384Q1236 384 1244 377Q1252 371 1252 361L1252 66Q1252 47 1271 47ZM1693 220Q1690 274 1661 306Q1633 338 1579 338Q1526 338 1490 305Q1454 273 1445 220L1693 220ZM1695 96Q1702 108 1711 108Q1720 108 1729 103Q1738 99 1741 89Q1745 80 1740 72Q1689 -10 1578 -10Q1490 -10 1439 46Q1389 103 1389 189Q1389 275 1441 329Q1493 384 1578 384Q1663 384 1704 333Q1746 282 1746 197Q1746 174 1720 174L1443 173Q1447 111 1483 73Q1520 36 1578 36Q1656 36 1695 96ZM1933 303Q1985 384 2071 384Q2158 384 2203 328Q2249 273 2249 188Q2249 103 2202 46Q2156 -10 2073 -10Q1991 -10 1937 47L1937 -206Q1937 -216 1929 -223Q1921 -229 1910 -229Q1899 -229 1891 -223Q1883 -216 1883 -206L1883 308Q1883 327 1864 327L1817 327Q1807 327 1800 333Q1794 340 1794 350Q1794 360 1800 367Q1807 374 1817 374L1871 374Q1935 374 1933 303ZM1937 243L1937 96Q2001 36 2065 36Q2129 36 2162 78Q2196 120 2196 189Q2196 258 2163 298Q2130 338 2072 338Q1987 338 1937 243ZM2321 374L2372 374Q2435 374 2437 306Q2491 384 2565 384Q2607 384 2636 368Q2650 360 2650 347L2650 263Q2650 253 2642 246Q2634 240 2623 240Q2612 240 2604 246Q2596 253 2596 263L2596 333Q2583 338 2557 338Q2531 338 2498 313Q2465 289 2441 241L2441 13Q2441 3 2433 -4Q2425 -10 2414 -10Q2403 -10 2395 -4Q2387 3 2387 13L2387 308Q2387 327 2367 327L2321 327Q2311 327 2304 333Q2298 340 2298 350Q2298 360 2304 367Q2311 374 2321 374ZM2817 351L2817 13Q2817 3 2809 -4Q2801 -10 2790 -10Q2779 -10 2771 -4Q2763 3 2763 13L2763 327L2697 327Q2687 327 2680 333Q2674 340 2674 350Q2674 360 2680 367Q2687 374 2697 374L2794 374Q2817 374 2817 351ZM2761 524Q2752 534 2752 548Q2752 562 2761 572Q2770 582 2786 582Q2802 582 2811 572Q2821 562 2821 548Q2821 534 2811 524Q2802 514 2786 514Q2770 514 2761 524ZM2960 327L2913 327Q2903 327 2896 333Q2890 340 2890 350Q2890 360 2896 367Q2903 374 2913 374L2967 374Q3029 374 3029 306Q3089 384 3180 384Q3234 384 3268 356Q3303 329 3303 276L3303 66Q3303 47 3330 47L3369 47Q3379 47 3385 40Q3392 33 3392 23Q3392 13 3385 6Q3379 0 3369 0L3330 0Q3249 0 3249 65L3249 276Q3249 306 3230 322Q3212 338 3179 338Q3087 338 3033 242L3033 13Q3033 3 3025 -4Q3017 -10 3006 -10Q2995 -10 2987 -4Q2979 3 2979 13L2979 308Q2979 327 2960 327ZM3724 64Q3732 69 3742 67Q3753 65 3757 58Q3761 52 3761 47Q3761 32 3750 25Q3690 -10 3621 -10Q3552 -10 3522 18Q3492 47 3492 113L3492 327L3436 327Q3426 327 3419 333Q3413 340 3413 350Q3413 360 3419 367Q3426 374 3436 374L3492 374L3492 517Q3492 527 3500 533Q3508 540 3519 540Q3530 540 3538 533Q3546 527 3546 517L3546 374L3714 374Q3724 374 3730 367Q3737 360 3737 350Q3737 340 3730 333Q3724 327 3714 327L3546 327L3546 113Q3546 71 3563 53Q3581 36 3628 36Q3676 36 3724 64Z" fill="#081c4f" style=""></path></g></g></g></svg>